<mxfile host="app.diagrams.net" modified="2023-11-23T11:13:34.001Z" agent="Mozilla/5.0 (Windows NT 10.0; Win64; x64) AppleWebKit/537.36 (KHTML, like Gecko) Chrome/119.0.0.0 Safari/537.36" etag="sTaHDp4zcucxwrGEnpsR" version="22.1.3" type="device">
  <diagram id="C5RBs43oDa-KdzZeNtuy" name="Page-1">
    <mxGraphModel dx="1120" dy="478" grid="1" gridSize="10" guides="1" tooltips="1" connect="1" arrows="1" fold="1" page="1" pageScale="1" pageWidth="827" pageHeight="1169" math="0" shadow="0">
      <root>
        <mxCell id="WIyWlLk6GJQsqaUBKTNV-0" />
        <mxCell id="WIyWlLk6GJQsqaUBKTNV-1" parent="WIyWlLk6GJQsqaUBKTNV-0" />
        <mxCell id="iAqxfxi3NoKlkfuJciBD-0" style="edgeStyle=orthogonalEdgeStyle;rounded=0;orthogonalLoop=1;jettySize=auto;html=1;" edge="1" parent="WIyWlLk6GJQsqaUBKTNV-1" source="iAqxfxi3NoKlkfuJciBD-1" target="iAqxfxi3NoKlkfuJciBD-3">
          <mxGeometry relative="1" as="geometry" />
        </mxCell>
        <mxCell id="iAqxfxi3NoKlkfuJciBD-1" value="start" style="ellipse;whiteSpace=wrap;html=1;" vertex="1" parent="WIyWlLk6GJQsqaUBKTNV-1">
          <mxGeometry x="290" y="170" width="120" height="80" as="geometry" />
        </mxCell>
        <mxCell id="iAqxfxi3NoKlkfuJciBD-2" style="edgeStyle=orthogonalEdgeStyle;rounded=0;orthogonalLoop=1;jettySize=auto;html=1;entryX=0.5;entryY=0;entryDx=0;entryDy=0;" edge="1" parent="WIyWlLk6GJQsqaUBKTNV-1" source="iAqxfxi3NoKlkfuJciBD-3" target="iAqxfxi3NoKlkfuJciBD-5">
          <mxGeometry relative="1" as="geometry" />
        </mxCell>
        <mxCell id="iAqxfxi3NoKlkfuJciBD-3" value="n, i, mid,j, end, start, choice, find,size" style="shape=parallelogram;perimeter=parallelogramPerimeter;whiteSpace=wrap;html=1;fixedSize=1;" vertex="1" parent="WIyWlLk6GJQsqaUBKTNV-1">
          <mxGeometry x="240" y="360" width="220" height="80" as="geometry" />
        </mxCell>
        <mxCell id="iAqxfxi3NoKlkfuJciBD-4" value="" style="edgeStyle=orthogonalEdgeStyle;rounded=0;orthogonalLoop=1;jettySize=auto;html=1;" edge="1" parent="WIyWlLk6GJQsqaUBKTNV-1" source="iAqxfxi3NoKlkfuJciBD-5" target="iAqxfxi3NoKlkfuJciBD-8">
          <mxGeometry relative="1" as="geometry" />
        </mxCell>
        <mxCell id="iAqxfxi3NoKlkfuJciBD-5" value="i=1&lt;br&gt;int arr[n]" style="rounded=0;whiteSpace=wrap;html=1;" vertex="1" parent="WIyWlLk6GJQsqaUBKTNV-1">
          <mxGeometry x="290" y="520" width="120" height="60" as="geometry" />
        </mxCell>
        <mxCell id="iAqxfxi3NoKlkfuJciBD-6" value="" style="edgeStyle=orthogonalEdgeStyle;rounded=0;orthogonalLoop=1;jettySize=auto;html=1;" edge="1" parent="WIyWlLk6GJQsqaUBKTNV-1" source="iAqxfxi3NoKlkfuJciBD-8" target="iAqxfxi3NoKlkfuJciBD-10">
          <mxGeometry relative="1" as="geometry" />
        </mxCell>
        <mxCell id="iAqxfxi3NoKlkfuJciBD-7" value="true" style="edgeLabel;html=1;align=center;verticalAlign=middle;resizable=0;points=[];" vertex="1" connectable="0" parent="iAqxfxi3NoKlkfuJciBD-6">
          <mxGeometry x="-0.425" y="-4" relative="1" as="geometry">
            <mxPoint as="offset" />
          </mxGeometry>
        </mxCell>
        <mxCell id="iAqxfxi3NoKlkfuJciBD-8" value="i&amp;lt;size" style="rhombus;whiteSpace=wrap;html=1;" vertex="1" parent="WIyWlLk6GJQsqaUBKTNV-1">
          <mxGeometry x="310" y="640" width="80" height="80" as="geometry" />
        </mxCell>
        <mxCell id="iAqxfxi3NoKlkfuJciBD-9" value="" style="edgeStyle=orthogonalEdgeStyle;rounded=0;orthogonalLoop=1;jettySize=auto;html=1;" edge="1" parent="WIyWlLk6GJQsqaUBKTNV-1" source="iAqxfxi3NoKlkfuJciBD-10" target="iAqxfxi3NoKlkfuJciBD-15">
          <mxGeometry relative="1" as="geometry" />
        </mxCell>
        <mxCell id="iAqxfxi3NoKlkfuJciBD-10" value="int key=arr[i]&lt;br&gt;j=i-1" style="rounded=0;whiteSpace=wrap;html=1;" vertex="1" parent="WIyWlLk6GJQsqaUBKTNV-1">
          <mxGeometry x="290" y="760" width="120" height="60" as="geometry" />
        </mxCell>
        <mxCell id="iAqxfxi3NoKlkfuJciBD-11" value="" style="edgeStyle=orthogonalEdgeStyle;rounded=0;orthogonalLoop=1;jettySize=auto;html=1;" edge="1" parent="WIyWlLk6GJQsqaUBKTNV-1" source="iAqxfxi3NoKlkfuJciBD-15" target="iAqxfxi3NoKlkfuJciBD-17">
          <mxGeometry relative="1" as="geometry" />
        </mxCell>
        <mxCell id="iAqxfxi3NoKlkfuJciBD-12" value="true" style="edgeLabel;html=1;align=center;verticalAlign=middle;resizable=0;points=[];" vertex="1" connectable="0" parent="iAqxfxi3NoKlkfuJciBD-11">
          <mxGeometry x="-0.375" y="1" relative="1" as="geometry">
            <mxPoint y="1" as="offset" />
          </mxGeometry>
        </mxCell>
        <mxCell id="iAqxfxi3NoKlkfuJciBD-13" value="" style="edgeStyle=orthogonalEdgeStyle;rounded=0;orthogonalLoop=1;jettySize=auto;html=1;" edge="1" parent="WIyWlLk6GJQsqaUBKTNV-1" source="iAqxfxi3NoKlkfuJciBD-15" target="iAqxfxi3NoKlkfuJciBD-19">
          <mxGeometry relative="1" as="geometry" />
        </mxCell>
        <mxCell id="iAqxfxi3NoKlkfuJciBD-14" value="false" style="edgeLabel;html=1;align=center;verticalAlign=middle;resizable=0;points=[];" vertex="1" connectable="0" parent="iAqxfxi3NoKlkfuJciBD-13">
          <mxGeometry x="0.0167" relative="1" as="geometry">
            <mxPoint y="1" as="offset" />
          </mxGeometry>
        </mxCell>
        <mxCell id="iAqxfxi3NoKlkfuJciBD-15" value="j&amp;gt;=0&amp;amp;&amp;amp;&lt;br&gt;arr[j]&amp;gt;key" style="rhombus;whiteSpace=wrap;html=1;" vertex="1" parent="WIyWlLk6GJQsqaUBKTNV-1">
          <mxGeometry x="500" y="750" width="80" height="80" as="geometry" />
        </mxCell>
        <mxCell id="iAqxfxi3NoKlkfuJciBD-16" style="edgeStyle=orthogonalEdgeStyle;rounded=0;orthogonalLoop=1;jettySize=auto;html=1;" edge="1" parent="WIyWlLk6GJQsqaUBKTNV-1" source="iAqxfxi3NoKlkfuJciBD-17">
          <mxGeometry relative="1" as="geometry">
            <mxPoint x="440" y="790" as="targetPoint" />
            <Array as="points">
              <mxPoint x="720" y="890" />
              <mxPoint x="440" y="890" />
            </Array>
          </mxGeometry>
        </mxCell>
        <mxCell id="iAqxfxi3NoKlkfuJciBD-17" value="arr[j+1]=arr[i]&lt;br&gt;j=j-1" style="rounded=0;whiteSpace=wrap;html=1;" vertex="1" parent="WIyWlLk6GJQsqaUBKTNV-1">
          <mxGeometry x="660" y="760" width="120" height="60" as="geometry" />
        </mxCell>
        <mxCell id="iAqxfxi3NoKlkfuJciBD-18" style="edgeStyle=orthogonalEdgeStyle;rounded=0;orthogonalLoop=1;jettySize=auto;html=1;" edge="1" parent="WIyWlLk6GJQsqaUBKTNV-1" source="iAqxfxi3NoKlkfuJciBD-19">
          <mxGeometry relative="1" as="geometry">
            <mxPoint x="350" y="600" as="targetPoint" />
            <Array as="points">
              <mxPoint x="540" y="600" />
            </Array>
          </mxGeometry>
        </mxCell>
        <mxCell id="iAqxfxi3NoKlkfuJciBD-19" value="arr[j+1]=key" style="rounded=0;whiteSpace=wrap;html=1;" vertex="1" parent="WIyWlLk6GJQsqaUBKTNV-1">
          <mxGeometry x="480" y="630" width="120" height="60" as="geometry" />
        </mxCell>
        <mxCell id="iAqxfxi3NoKlkfuJciBD-20" value="" style="edgeStyle=orthogonalEdgeStyle;rounded=0;orthogonalLoop=1;jettySize=auto;html=1;" edge="1" parent="WIyWlLk6GJQsqaUBKTNV-1" source="iAqxfxi3NoKlkfuJciBD-21" target="iAqxfxi3NoKlkfuJciBD-25">
          <mxGeometry relative="1" as="geometry" />
        </mxCell>
        <mxCell id="iAqxfxi3NoKlkfuJciBD-21" value="menu" style="rounded=0;whiteSpace=wrap;html=1;shape=parallelogram;perimeter=parallelogramPerimeter;fixedSize=1;" vertex="1" parent="WIyWlLk6GJQsqaUBKTNV-1">
          <mxGeometry x="300" y="910" width="120" height="60" as="geometry" />
        </mxCell>
        <mxCell id="iAqxfxi3NoKlkfuJciBD-22" style="edgeStyle=orthogonalEdgeStyle;rounded=0;orthogonalLoop=1;jettySize=auto;html=1;entryX=0;entryY=0.5;entryDx=0;entryDy=0;" edge="1" parent="WIyWlLk6GJQsqaUBKTNV-1" source="iAqxfxi3NoKlkfuJciBD-8" target="iAqxfxi3NoKlkfuJciBD-21">
          <mxGeometry relative="1" as="geometry">
            <Array as="points">
              <mxPoint x="250" y="680" />
              <mxPoint x="250" y="940" />
            </Array>
          </mxGeometry>
        </mxCell>
        <mxCell id="iAqxfxi3NoKlkfuJciBD-23" value="false" style="edgeLabel;html=1;align=center;verticalAlign=middle;resizable=0;points=[];" vertex="1" connectable="0" parent="iAqxfxi3NoKlkfuJciBD-22">
          <mxGeometry x="-0.1369" y="-2" relative="1" as="geometry">
            <mxPoint as="offset" />
          </mxGeometry>
        </mxCell>
        <mxCell id="iAqxfxi3NoKlkfuJciBD-24" value="" style="edgeStyle=orthogonalEdgeStyle;rounded=0;orthogonalLoop=1;jettySize=auto;html=1;" edge="1" parent="WIyWlLk6GJQsqaUBKTNV-1" source="iAqxfxi3NoKlkfuJciBD-25" target="iAqxfxi3NoKlkfuJciBD-30">
          <mxGeometry relative="1" as="geometry" />
        </mxCell>
        <mxCell id="iAqxfxi3NoKlkfuJciBD-25" value="choice" style="shape=parallelogram;perimeter=parallelogramPerimeter;whiteSpace=wrap;html=1;fixedSize=1;" vertex="1" parent="WIyWlLk6GJQsqaUBKTNV-1">
          <mxGeometry x="300" y="1080" width="120" height="60" as="geometry" />
        </mxCell>
        <mxCell id="iAqxfxi3NoKlkfuJciBD-26" value="" style="edgeStyle=orthogonalEdgeStyle;rounded=0;orthogonalLoop=1;jettySize=auto;html=1;" edge="1" parent="WIyWlLk6GJQsqaUBKTNV-1" source="iAqxfxi3NoKlkfuJciBD-30" target="iAqxfxi3NoKlkfuJciBD-35">
          <mxGeometry relative="1" as="geometry" />
        </mxCell>
        <mxCell id="iAqxfxi3NoKlkfuJciBD-27" value="false" style="edgeLabel;html=1;align=center;verticalAlign=middle;resizable=0;points=[];" vertex="1" connectable="0" parent="iAqxfxi3NoKlkfuJciBD-26">
          <mxGeometry x="0.0667" y="-2" relative="1" as="geometry">
            <mxPoint as="offset" />
          </mxGeometry>
        </mxCell>
        <mxCell id="iAqxfxi3NoKlkfuJciBD-28" value="" style="edgeStyle=orthogonalEdgeStyle;rounded=0;orthogonalLoop=1;jettySize=auto;html=1;entryX=0;entryY=0.5;entryDx=0;entryDy=0;" edge="1" parent="WIyWlLk6GJQsqaUBKTNV-1" source="iAqxfxi3NoKlkfuJciBD-30" target="iAqxfxi3NoKlkfuJciBD-37">
          <mxGeometry relative="1" as="geometry">
            <mxPoint x="640" y="1110" as="targetPoint" />
          </mxGeometry>
        </mxCell>
        <mxCell id="iAqxfxi3NoKlkfuJciBD-29" value="true" style="edgeLabel;html=1;align=center;verticalAlign=middle;resizable=0;points=[];" vertex="1" connectable="0" parent="iAqxfxi3NoKlkfuJciBD-28">
          <mxGeometry x="-0.15" y="3" relative="1" as="geometry">
            <mxPoint as="offset" />
          </mxGeometry>
        </mxCell>
        <mxCell id="iAqxfxi3NoKlkfuJciBD-30" value="case==1" style="rhombus;whiteSpace=wrap;html=1;" vertex="1" parent="WIyWlLk6GJQsqaUBKTNV-1">
          <mxGeometry x="480" y="1070" width="80" height="80" as="geometry" />
        </mxCell>
        <mxCell id="iAqxfxi3NoKlkfuJciBD-31" value="" style="edgeStyle=orthogonalEdgeStyle;rounded=0;orthogonalLoop=1;jettySize=auto;html=1;" edge="1" parent="WIyWlLk6GJQsqaUBKTNV-1" source="iAqxfxi3NoKlkfuJciBD-35" target="iAqxfxi3NoKlkfuJciBD-46">
          <mxGeometry relative="1" as="geometry" />
        </mxCell>
        <mxCell id="iAqxfxi3NoKlkfuJciBD-32" value="true" style="edgeLabel;html=1;align=center;verticalAlign=middle;resizable=0;points=[];" vertex="1" connectable="0" parent="iAqxfxi3NoKlkfuJciBD-31">
          <mxGeometry x="-0.375" y="-1" relative="1" as="geometry">
            <mxPoint as="offset" />
          </mxGeometry>
        </mxCell>
        <mxCell id="iAqxfxi3NoKlkfuJciBD-33" style="edgeStyle=orthogonalEdgeStyle;rounded=0;orthogonalLoop=1;jettySize=auto;html=1;" edge="1" parent="WIyWlLk6GJQsqaUBKTNV-1" source="iAqxfxi3NoKlkfuJciBD-35" target="iAqxfxi3NoKlkfuJciBD-60">
          <mxGeometry relative="1" as="geometry" />
        </mxCell>
        <mxCell id="iAqxfxi3NoKlkfuJciBD-34" value="false" style="edgeLabel;html=1;align=center;verticalAlign=middle;resizable=0;points=[];" vertex="1" connectable="0" parent="iAqxfxi3NoKlkfuJciBD-33">
          <mxGeometry x="-0.005" relative="1" as="geometry">
            <mxPoint y="-1" as="offset" />
          </mxGeometry>
        </mxCell>
        <mxCell id="iAqxfxi3NoKlkfuJciBD-35" value="case==2" style="rhombus;whiteSpace=wrap;html=1;" vertex="1" parent="WIyWlLk6GJQsqaUBKTNV-1">
          <mxGeometry x="480" y="1380" width="80" height="80" as="geometry" />
        </mxCell>
        <mxCell id="iAqxfxi3NoKlkfuJciBD-36" value="" style="edgeStyle=orthogonalEdgeStyle;rounded=0;orthogonalLoop=1;jettySize=auto;html=1;" edge="1" parent="WIyWlLk6GJQsqaUBKTNV-1" source="iAqxfxi3NoKlkfuJciBD-37" target="iAqxfxi3NoKlkfuJciBD-43">
          <mxGeometry relative="1" as="geometry" />
        </mxCell>
        <mxCell id="iAqxfxi3NoKlkfuJciBD-37" value="i=0" style="rounded=0;whiteSpace=wrap;html=1;" vertex="1" parent="WIyWlLk6GJQsqaUBKTNV-1">
          <mxGeometry x="640" y="1080" width="120" height="60" as="geometry" />
        </mxCell>
        <mxCell id="iAqxfxi3NoKlkfuJciBD-38" value="arr[i]&lt;br&gt;i++" style="shape=parallelogram;perimeter=parallelogramPerimeter;whiteSpace=wrap;html=1;fixedSize=1;" vertex="1" parent="WIyWlLk6GJQsqaUBKTNV-1">
          <mxGeometry x="950" y="1080" width="120" height="60" as="geometry" />
        </mxCell>
        <mxCell id="iAqxfxi3NoKlkfuJciBD-39" value="" style="edgeStyle=orthogonalEdgeStyle;rounded=0;orthogonalLoop=1;jettySize=auto;html=1;" edge="1" parent="WIyWlLk6GJQsqaUBKTNV-1" source="iAqxfxi3NoKlkfuJciBD-43" target="iAqxfxi3NoKlkfuJciBD-38">
          <mxGeometry relative="1" as="geometry" />
        </mxCell>
        <mxCell id="iAqxfxi3NoKlkfuJciBD-40" value="true" style="edgeLabel;html=1;align=center;verticalAlign=middle;resizable=0;points=[];" vertex="1" connectable="0" parent="iAqxfxi3NoKlkfuJciBD-39">
          <mxGeometry x="-0.0571" y="-1" relative="1" as="geometry">
            <mxPoint y="1" as="offset" />
          </mxGeometry>
        </mxCell>
        <mxCell id="iAqxfxi3NoKlkfuJciBD-41" style="edgeStyle=orthogonalEdgeStyle;rounded=0;orthogonalLoop=1;jettySize=auto;html=1;" edge="1" parent="WIyWlLk6GJQsqaUBKTNV-1" source="iAqxfxi3NoKlkfuJciBD-43">
          <mxGeometry relative="1" as="geometry">
            <mxPoint x="1940" y="1220" as="targetPoint" />
            <Array as="points">
              <mxPoint x="867" y="1220" />
            </Array>
          </mxGeometry>
        </mxCell>
        <mxCell id="iAqxfxi3NoKlkfuJciBD-42" value="false" style="edgeLabel;html=1;align=center;verticalAlign=middle;resizable=0;points=[];" vertex="1" connectable="0" parent="iAqxfxi3NoKlkfuJciBD-41">
          <mxGeometry x="-0.7196" y="5" relative="1" as="geometry">
            <mxPoint x="1" as="offset" />
          </mxGeometry>
        </mxCell>
        <mxCell id="iAqxfxi3NoKlkfuJciBD-43" value="i&amp;lt;n" style="rhombus;whiteSpace=wrap;html=1;" vertex="1" parent="WIyWlLk6GJQsqaUBKTNV-1">
          <mxGeometry x="827" y="1070" width="80" height="80" as="geometry" />
        </mxCell>
        <mxCell id="iAqxfxi3NoKlkfuJciBD-44" value="" style="endArrow=classic;html=1;rounded=0;exitX=0.5;exitY=0;exitDx=0;exitDy=0;" edge="1" parent="WIyWlLk6GJQsqaUBKTNV-1">
          <mxGeometry width="50" height="50" relative="1" as="geometry">
            <mxPoint x="1010" y="1080" as="sourcePoint" />
            <mxPoint x="790" y="1110" as="targetPoint" />
            <Array as="points">
              <mxPoint x="1010" y="1050" />
              <mxPoint x="790" y="1050" />
            </Array>
          </mxGeometry>
        </mxCell>
        <mxCell id="iAqxfxi3NoKlkfuJciBD-45" value="" style="edgeStyle=orthogonalEdgeStyle;rounded=0;orthogonalLoop=1;jettySize=auto;html=1;" edge="1" parent="WIyWlLk6GJQsqaUBKTNV-1" source="iAqxfxi3NoKlkfuJciBD-46" target="iAqxfxi3NoKlkfuJciBD-49">
          <mxGeometry relative="1" as="geometry" />
        </mxCell>
        <mxCell id="iAqxfxi3NoKlkfuJciBD-46" value="i=0" style="rounded=0;whiteSpace=wrap;html=1;" vertex="1" parent="WIyWlLk6GJQsqaUBKTNV-1">
          <mxGeometry x="670" y="1390" width="120" height="60" as="geometry" />
        </mxCell>
        <mxCell id="iAqxfxi3NoKlkfuJciBD-47" value="" style="edgeStyle=orthogonalEdgeStyle;rounded=0;orthogonalLoop=1;jettySize=auto;html=1;" edge="1" parent="WIyWlLk6GJQsqaUBKTNV-1" source="iAqxfxi3NoKlkfuJciBD-49" target="iAqxfxi3NoKlkfuJciBD-53">
          <mxGeometry relative="1" as="geometry" />
        </mxCell>
        <mxCell id="iAqxfxi3NoKlkfuJciBD-48" value="true" style="edgeLabel;html=1;align=center;verticalAlign=middle;resizable=0;points=[];" vertex="1" connectable="0" parent="iAqxfxi3NoKlkfuJciBD-47">
          <mxGeometry x="-0.3111" y="2" relative="1" as="geometry">
            <mxPoint y="1" as="offset" />
          </mxGeometry>
        </mxCell>
        <mxCell id="iAqxfxi3NoKlkfuJciBD-49" value="i&amp;lt;size" style="rhombus;whiteSpace=wrap;html=1;" vertex="1" parent="WIyWlLk6GJQsqaUBKTNV-1">
          <mxGeometry x="870" y="1380" width="80" height="80" as="geometry" />
        </mxCell>
        <mxCell id="iAqxfxi3NoKlkfuJciBD-50" value="" style="edgeStyle=orthogonalEdgeStyle;rounded=0;orthogonalLoop=1;jettySize=auto;html=1;" edge="1" parent="WIyWlLk6GJQsqaUBKTNV-1" source="iAqxfxi3NoKlkfuJciBD-53" target="iAqxfxi3NoKlkfuJciBD-55">
          <mxGeometry relative="1" as="geometry" />
        </mxCell>
        <mxCell id="iAqxfxi3NoKlkfuJciBD-51" value="true" style="edgeLabel;html=1;align=center;verticalAlign=middle;resizable=0;points=[];" vertex="1" connectable="0" parent="iAqxfxi3NoKlkfuJciBD-50">
          <mxGeometry x="-0.167" relative="1" as="geometry">
            <mxPoint y="1" as="offset" />
          </mxGeometry>
        </mxCell>
        <mxCell id="iAqxfxi3NoKlkfuJciBD-52" style="edgeStyle=orthogonalEdgeStyle;rounded=0;orthogonalLoop=1;jettySize=auto;html=1;" edge="1" parent="WIyWlLk6GJQsqaUBKTNV-1" source="iAqxfxi3NoKlkfuJciBD-53">
          <mxGeometry relative="1" as="geometry">
            <mxPoint x="820" y="1420" as="targetPoint" />
            <Array as="points">
              <mxPoint x="1080" y="1300" />
              <mxPoint x="820" y="1300" />
            </Array>
          </mxGeometry>
        </mxCell>
        <mxCell id="iAqxfxi3NoKlkfuJciBD-53" value="arr[i]==find" style="rhombus;whiteSpace=wrap;html=1;" vertex="1" parent="WIyWlLk6GJQsqaUBKTNV-1">
          <mxGeometry x="1040" y="1380" width="80" height="80" as="geometry" />
        </mxCell>
        <mxCell id="iAqxfxi3NoKlkfuJciBD-54" style="edgeStyle=orthogonalEdgeStyle;rounded=0;orthogonalLoop=1;jettySize=auto;html=1;" edge="1" parent="WIyWlLk6GJQsqaUBKTNV-1" source="iAqxfxi3NoKlkfuJciBD-55">
          <mxGeometry relative="1" as="geometry">
            <mxPoint x="1940" y="1420" as="targetPoint" />
          </mxGeometry>
        </mxCell>
        <mxCell id="iAqxfxi3NoKlkfuJciBD-55" value="arr[i]" style="shape=parallelogram;perimeter=parallelogramPerimeter;whiteSpace=wrap;html=1;fixedSize=1;" vertex="1" parent="WIyWlLk6GJQsqaUBKTNV-1">
          <mxGeometry x="1200" y="1390" width="110" height="60" as="geometry" />
        </mxCell>
        <mxCell id="iAqxfxi3NoKlkfuJciBD-56" value="" style="edgeStyle=orthogonalEdgeStyle;rounded=0;orthogonalLoop=1;jettySize=auto;html=1;" edge="1" parent="WIyWlLk6GJQsqaUBKTNV-1" source="iAqxfxi3NoKlkfuJciBD-60" target="iAqxfxi3NoKlkfuJciBD-62">
          <mxGeometry relative="1" as="geometry" />
        </mxCell>
        <mxCell id="iAqxfxi3NoKlkfuJciBD-57" value="true" style="edgeLabel;html=1;align=center;verticalAlign=middle;resizable=0;points=[];" vertex="1" connectable="0" parent="iAqxfxi3NoKlkfuJciBD-56">
          <mxGeometry x="-0.0909" relative="1" as="geometry">
            <mxPoint y="-1" as="offset" />
          </mxGeometry>
        </mxCell>
        <mxCell id="iAqxfxi3NoKlkfuJciBD-58" value="" style="edgeStyle=orthogonalEdgeStyle;rounded=0;orthogonalLoop=1;jettySize=auto;html=1;" edge="1" parent="WIyWlLk6GJQsqaUBKTNV-1" source="iAqxfxi3NoKlkfuJciBD-60" target="iAqxfxi3NoKlkfuJciBD-87">
          <mxGeometry relative="1" as="geometry" />
        </mxCell>
        <mxCell id="iAqxfxi3NoKlkfuJciBD-59" value="false" style="edgeLabel;html=1;align=center;verticalAlign=middle;resizable=0;points=[];" vertex="1" connectable="0" parent="iAqxfxi3NoKlkfuJciBD-58">
          <mxGeometry x="-0.0071" y="-2" relative="1" as="geometry">
            <mxPoint x="-1" y="-1" as="offset" />
          </mxGeometry>
        </mxCell>
        <mxCell id="iAqxfxi3NoKlkfuJciBD-60" value="case==3" style="rhombus;whiteSpace=wrap;html=1;" vertex="1" parent="WIyWlLk6GJQsqaUBKTNV-1">
          <mxGeometry x="480" y="1660" width="80" height="80" as="geometry" />
        </mxCell>
        <mxCell id="iAqxfxi3NoKlkfuJciBD-61" style="edgeStyle=orthogonalEdgeStyle;rounded=0;orthogonalLoop=1;jettySize=auto;html=1;" edge="1" parent="WIyWlLk6GJQsqaUBKTNV-1" source="iAqxfxi3NoKlkfuJciBD-62" target="iAqxfxi3NoKlkfuJciBD-64">
          <mxGeometry relative="1" as="geometry">
            <mxPoint x="940" y="1700" as="targetPoint" />
          </mxGeometry>
        </mxCell>
        <mxCell id="iAqxfxi3NoKlkfuJciBD-62" value="end=n&lt;br&gt;start=0" style="rounded=0;whiteSpace=wrap;html=1;" vertex="1" parent="WIyWlLk6GJQsqaUBKTNV-1">
          <mxGeometry x="670" y="1670" width="120" height="60" as="geometry" />
        </mxCell>
        <mxCell id="iAqxfxi3NoKlkfuJciBD-63" value="" style="edgeStyle=orthogonalEdgeStyle;rounded=0;orthogonalLoop=1;jettySize=auto;html=1;" edge="1" parent="WIyWlLk6GJQsqaUBKTNV-1" source="iAqxfxi3NoKlkfuJciBD-64" target="iAqxfxi3NoKlkfuJciBD-66">
          <mxGeometry relative="1" as="geometry" />
        </mxCell>
        <mxCell id="iAqxfxi3NoKlkfuJciBD-64" value="start&amp;lt;=end" style="rhombus;whiteSpace=wrap;html=1;" vertex="1" parent="WIyWlLk6GJQsqaUBKTNV-1">
          <mxGeometry x="890" y="1660" width="80" height="80" as="geometry" />
        </mxCell>
        <mxCell id="iAqxfxi3NoKlkfuJciBD-65" value="" style="edgeStyle=orthogonalEdgeStyle;rounded=0;orthogonalLoop=1;jettySize=auto;html=1;" edge="1" parent="WIyWlLk6GJQsqaUBKTNV-1" source="iAqxfxi3NoKlkfuJciBD-66" target="iAqxfxi3NoKlkfuJciBD-71">
          <mxGeometry relative="1" as="geometry" />
        </mxCell>
        <mxCell id="iAqxfxi3NoKlkfuJciBD-66" value="mid=(start+end)/2" style="rounded=0;whiteSpace=wrap;html=1;" vertex="1" parent="WIyWlLk6GJQsqaUBKTNV-1">
          <mxGeometry x="1030" y="1670" width="120" height="60" as="geometry" />
        </mxCell>
        <mxCell id="iAqxfxi3NoKlkfuJciBD-67" value="" style="edgeStyle=orthogonalEdgeStyle;rounded=0;orthogonalLoop=1;jettySize=auto;html=1;" edge="1" parent="WIyWlLk6GJQsqaUBKTNV-1" source="iAqxfxi3NoKlkfuJciBD-71" target="iAqxfxi3NoKlkfuJciBD-76">
          <mxGeometry relative="1" as="geometry" />
        </mxCell>
        <mxCell id="iAqxfxi3NoKlkfuJciBD-68" value="false" style="edgeLabel;html=1;align=center;verticalAlign=middle;resizable=0;points=[];" vertex="1" connectable="0" parent="iAqxfxi3NoKlkfuJciBD-67">
          <mxGeometry x="-0.2778" y="1" relative="1" as="geometry">
            <mxPoint x="1" as="offset" />
          </mxGeometry>
        </mxCell>
        <mxCell id="iAqxfxi3NoKlkfuJciBD-69" style="edgeStyle=orthogonalEdgeStyle;rounded=0;orthogonalLoop=1;jettySize=auto;html=1;entryX=0;entryY=0.25;entryDx=0;entryDy=0;" edge="1" parent="WIyWlLk6GJQsqaUBKTNV-1">
          <mxGeometry relative="1" as="geometry">
            <mxPoint x="1290" y="1740" as="sourcePoint" />
            <mxPoint x="1583.8461538461538" y="1798.4615384615386" as="targetPoint" />
            <Array as="points">
              <mxPoint x="1290" y="1799" />
            </Array>
          </mxGeometry>
        </mxCell>
        <mxCell id="iAqxfxi3NoKlkfuJciBD-70" value="true" style="edgeLabel;html=1;align=center;verticalAlign=middle;resizable=0;points=[];" vertex="1" connectable="0" parent="iAqxfxi3NoKlkfuJciBD-69">
          <mxGeometry x="-0.1259" y="-4" relative="1" as="geometry">
            <mxPoint as="offset" />
          </mxGeometry>
        </mxCell>
        <mxCell id="iAqxfxi3NoKlkfuJciBD-71" value="arr[i]==find" style="rhombus;whiteSpace=wrap;html=1;rounded=0;" vertex="1" parent="WIyWlLk6GJQsqaUBKTNV-1">
          <mxGeometry x="1250" y="1660" width="80" height="80" as="geometry" />
        </mxCell>
        <mxCell id="iAqxfxi3NoKlkfuJciBD-72" value="false" style="text;html=1;align=center;verticalAlign=middle;resizable=0;points=[];autosize=1;strokeColor=none;fillColor=none;" vertex="1" parent="WIyWlLk6GJQsqaUBKTNV-1">
          <mxGeometry x="925" y="1278" width="50" height="30" as="geometry" />
        </mxCell>
        <mxCell id="iAqxfxi3NoKlkfuJciBD-73" value="" style="edgeStyle=orthogonalEdgeStyle;rounded=0;orthogonalLoop=1;jettySize=auto;html=1;" edge="1" parent="WIyWlLk6GJQsqaUBKTNV-1" source="iAqxfxi3NoKlkfuJciBD-76" target="iAqxfxi3NoKlkfuJciBD-78">
          <mxGeometry relative="1" as="geometry" />
        </mxCell>
        <mxCell id="iAqxfxi3NoKlkfuJciBD-74" value="true" style="edgeLabel;html=1;align=center;verticalAlign=middle;resizable=0;points=[];" vertex="1" connectable="0" parent="iAqxfxi3NoKlkfuJciBD-73">
          <mxGeometry x="0.025" relative="1" as="geometry">
            <mxPoint x="1" y="1" as="offset" />
          </mxGeometry>
        </mxCell>
        <mxCell id="iAqxfxi3NoKlkfuJciBD-75" value="false" style="edgeStyle=orthogonalEdgeStyle;rounded=0;orthogonalLoop=1;jettySize=auto;html=1;" edge="1" parent="WIyWlLk6GJQsqaUBKTNV-1" source="iAqxfxi3NoKlkfuJciBD-76" target="iAqxfxi3NoKlkfuJciBD-80">
          <mxGeometry relative="1" as="geometry" />
        </mxCell>
        <mxCell id="iAqxfxi3NoKlkfuJciBD-76" value="arr[mid]&amp;lt;find" style="rhombus;whiteSpace=wrap;html=1;" vertex="1" parent="WIyWlLk6GJQsqaUBKTNV-1">
          <mxGeometry x="1420" y="1660" width="80" height="80" as="geometry" />
        </mxCell>
        <mxCell id="iAqxfxi3NoKlkfuJciBD-77" style="edgeStyle=orthogonalEdgeStyle;rounded=0;orthogonalLoop=1;jettySize=auto;html=1;" edge="1" parent="WIyWlLk6GJQsqaUBKTNV-1" source="iAqxfxi3NoKlkfuJciBD-78">
          <mxGeometry relative="1" as="geometry">
            <mxPoint x="860" y="1700" as="targetPoint" />
          </mxGeometry>
        </mxCell>
        <mxCell id="iAqxfxi3NoKlkfuJciBD-78" value="start=mid+1" style="rounded=0;whiteSpace=wrap;html=1;" vertex="1" parent="WIyWlLk6GJQsqaUBKTNV-1">
          <mxGeometry x="1400" y="1560" width="120" height="60" as="geometry" />
        </mxCell>
        <mxCell id="iAqxfxi3NoKlkfuJciBD-79" style="edgeStyle=orthogonalEdgeStyle;rounded=0;orthogonalLoop=1;jettySize=auto;html=1;" edge="1" parent="WIyWlLk6GJQsqaUBKTNV-1" source="iAqxfxi3NoKlkfuJciBD-80">
          <mxGeometry relative="1" as="geometry">
            <mxPoint x="840" y="1700" as="targetPoint" />
            <Array as="points">
              <mxPoint x="1630" y="1490" />
              <mxPoint x="840" y="1490" />
            </Array>
          </mxGeometry>
        </mxCell>
        <mxCell id="iAqxfxi3NoKlkfuJciBD-80" value="end=mid-1" style="rounded=0;whiteSpace=wrap;html=1;" vertex="1" parent="WIyWlLk6GJQsqaUBKTNV-1">
          <mxGeometry x="1570" y="1670" width="120" height="60" as="geometry" />
        </mxCell>
        <mxCell id="iAqxfxi3NoKlkfuJciBD-81" style="edgeStyle=orthogonalEdgeStyle;rounded=0;orthogonalLoop=1;jettySize=auto;html=1;exitX=1;exitY=0.5;exitDx=0;exitDy=0;" edge="1" parent="WIyWlLk6GJQsqaUBKTNV-1" source="iAqxfxi3NoKlkfuJciBD-82">
          <mxGeometry relative="1" as="geometry">
            <mxPoint x="360" y="1010" as="targetPoint" />
            <Array as="points">
              <mxPoint x="1940" y="1810" />
              <mxPoint x="1940" y="1010" />
              <mxPoint x="460" y="1010" />
            </Array>
          </mxGeometry>
        </mxCell>
        <mxCell id="iAqxfxi3NoKlkfuJciBD-82" value="arr[mid]" style="shape=parallelogram;perimeter=parallelogramPerimeter;whiteSpace=wrap;html=1;fixedSize=1;" vertex="1" parent="WIyWlLk6GJQsqaUBKTNV-1">
          <mxGeometry x="1570" y="1780" width="120" height="60" as="geometry" />
        </mxCell>
        <mxCell id="iAqxfxi3NoKlkfuJciBD-83" style="edgeStyle=orthogonalEdgeStyle;rounded=0;orthogonalLoop=1;jettySize=auto;html=1;entryX=0;entryY=0.5;entryDx=0;entryDy=0;" edge="1" parent="WIyWlLk6GJQsqaUBKTNV-1" source="iAqxfxi3NoKlkfuJciBD-87" target="iAqxfxi3NoKlkfuJciBD-89">
          <mxGeometry relative="1" as="geometry" />
        </mxCell>
        <mxCell id="iAqxfxi3NoKlkfuJciBD-84" value="true" style="edgeLabel;html=1;align=center;verticalAlign=middle;resizable=0;points=[];" vertex="1" connectable="0" parent="iAqxfxi3NoKlkfuJciBD-83">
          <mxGeometry x="-0.2105" y="8" relative="1" as="geometry">
            <mxPoint as="offset" />
          </mxGeometry>
        </mxCell>
        <mxCell id="iAqxfxi3NoKlkfuJciBD-85" value="" style="edgeStyle=orthogonalEdgeStyle;rounded=0;orthogonalLoop=1;jettySize=auto;html=1;" edge="1" parent="WIyWlLk6GJQsqaUBKTNV-1" source="iAqxfxi3NoKlkfuJciBD-87">
          <mxGeometry relative="1" as="geometry">
            <mxPoint x="520" y="2040" as="targetPoint" />
          </mxGeometry>
        </mxCell>
        <mxCell id="iAqxfxi3NoKlkfuJciBD-86" value="false" style="edgeLabel;html=1;align=center;verticalAlign=middle;resizable=0;points=[];" vertex="1" connectable="0" parent="iAqxfxi3NoKlkfuJciBD-85">
          <mxGeometry x="-0.075" relative="1" as="geometry">
            <mxPoint y="-1" as="offset" />
          </mxGeometry>
        </mxCell>
        <mxCell id="iAqxfxi3NoKlkfuJciBD-87" value="case== 4" style="rhombus;whiteSpace=wrap;html=1;" vertex="1" parent="WIyWlLk6GJQsqaUBKTNV-1">
          <mxGeometry x="480" y="1880" width="80" height="80" as="geometry" />
        </mxCell>
        <mxCell id="iAqxfxi3NoKlkfuJciBD-88" style="edgeStyle=orthogonalEdgeStyle;rounded=0;orthogonalLoop=1;jettySize=auto;html=1;" edge="1" parent="WIyWlLk6GJQsqaUBKTNV-1" source="iAqxfxi3NoKlkfuJciBD-89" target="iAqxfxi3NoKlkfuJciBD-90">
          <mxGeometry relative="1" as="geometry" />
        </mxCell>
        <mxCell id="iAqxfxi3NoKlkfuJciBD-89" value="end" style="shape=parallelogram;perimeter=parallelogramPerimeter;whiteSpace=wrap;html=1;fixedSize=1;" vertex="1" parent="WIyWlLk6GJQsqaUBKTNV-1">
          <mxGeometry x="740" y="1890" width="120" height="60" as="geometry" />
        </mxCell>
        <mxCell id="iAqxfxi3NoKlkfuJciBD-90" value="end" style="ellipse;whiteSpace=wrap;html=1;" vertex="1" parent="WIyWlLk6GJQsqaUBKTNV-1">
          <mxGeometry x="1130" y="1880" width="120" height="80" as="geometry" />
        </mxCell>
        <mxCell id="iAqxfxi3NoKlkfuJciBD-91" style="edgeStyle=orthogonalEdgeStyle;rounded=0;orthogonalLoop=1;jettySize=auto;html=1;" edge="1" parent="WIyWlLk6GJQsqaUBKTNV-1">
          <mxGeometry relative="1" as="geometry">
            <mxPoint x="1940" y="1810" as="targetPoint" />
            <mxPoint x="570" y="2075" as="sourcePoint" />
            <Array as="points">
              <mxPoint x="570" y="2080" />
              <mxPoint x="1940" y="2080" />
            </Array>
          </mxGeometry>
        </mxCell>
        <mxCell id="iAqxfxi3NoKlkfuJciBD-92" value="vui long nhap 1-4" style="shape=parallelogram;perimeter=parallelogramPerimeter;whiteSpace=wrap;html=1;fixedSize=1;" vertex="1" parent="WIyWlLk6GJQsqaUBKTNV-1">
          <mxGeometry x="470" y="2040" width="120" height="60" as="geometry" />
        </mxCell>
      </root>
    </mxGraphModel>
  </diagram>
</mxfile>
